<?xml version="1.0" encoding="utf-8"?>
<!-- Generator: Adobe Illustrator 27.3.1, SVG Export Plug-In . SVG Version: 6.00 Build 0)  -->
<svg version="1.1" id="Layer_1" xmlns="http://www.w3.org/2000/svg" xmlns:xlink="http://www.w3.org/1999/xlink" x="0px" y="0px"
	 viewBox="0 0 2160 2160" style="enable-background:new 0 0 2160 2160;" xml:space="preserve">
<style type="text/css">
	.st0{fill:#231F20;}
	.st1{font-family:'Intro-Black';}
	.st2{font-size:307.576px;}
	.st3{fill:#E4BA70;}
</style>
<g>
	<g>
		<g>
			<text transform="matrix(1 0 0 1 106.2261 1971.1846)" class="st0 st1 st2">RAMS IMPEX</text>
		</g>
	</g>
	<g>
		<g>
			<path class="st3" d="M768.8,1532.8c-31.49,0-57.01-25.53-57.01-57.01V836.4c0-31.49,25.53-57.01,57.01-57.01
				c31.49,0,57.01,25.53,57.01,57.01v639.39C825.82,1507.27,800.29,1532.8,768.8,1532.8z"/>
			<path class="st3" d="M1201.24,1148.76h-137.39v-114.03h137.39c109.38,0,198.36-88.98,198.36-198.36
				c0-109.36-88.98-198.33-198.36-198.33H646.37V524.03h554.87c172.24,0,312.38,140.12,312.38,312.35
				C1513.63,1008.63,1373.49,1148.76,1201.24,1148.76z"/>
			<path class="st3" d="M1456.61,1532.8H1253.1v-114.03h146.5v-147.49h114.03v204.5C1513.63,1507.27,1488.1,1532.8,1456.61,1532.8z"
				/>
			<path class="st3" d="M1228.7,1532.82c-22.11,0-43.15-12.94-52.42-34.55l-164.82-384.04c-12.42-28.93,0.97-62.46,29.91-74.87
				c28.93-12.43,62.46,0.97,74.88,29.91l164.82,384.04c12.42,28.93-0.97,62.46-29.91,74.88
				C1243.83,1531.33,1236.2,1532.82,1228.7,1532.82z"/>
			<rect x="646.37" y="779.39" class="st3" width="122.43" height="114.03"/>
			<polygon class="st3" points="801.11,1018.03 736.5,924.06 946.93,779.39 1192.65,779.39 1192.65,893.41 982.35,893.41 			"/>
			<rect x="646.37" y="1418.78" class="st3" width="248.76" height="114.03"/>
			<rect x="1104.29" y="1418.78" class="st3" width="248.76" height="114.03"/>
		</g>
		<g>
			<path class="st0" d="M1456.61,387.59H703.38c-31.48,0-57.01-25.53-57.01-57.01V210.53H760.4v63.04h639.2v-63.04h114.03v120.05
				C1513.63,362.06,1488.1,387.59,1456.61,387.59z"/>
			<rect x="1022.99" y="83.52" class="st0" width="114.03" height="247.06"/>
		</g>
	</g>
</g>
</svg>
